<svg xmlns="http://www.w3.org/2000/svg" xmlns:xlink="http://www.w3.org/1999/xlink" width="500" zoomAndPan="magnify" viewBox="0 0 375 374.999991" height="500" preserveAspectRatio="xMidYMid meet" version="1.0"><defs><g/><clipPath id="891ce24af3"><path d="M 92 96 L 310 96 L 310 315 L 92 315 Z M 92 96 " clip-rule="nonzero"/></clipPath><clipPath id="ee4b762cbe"><path d="M 142.007812 316.726562 L 90.652344 98.722656 L 283.472656 53.300781 L 334.828125 271.304688 Z M 142.007812 316.726562 " clip-rule="nonzero"/></clipPath><clipPath id="c2d1df3566"><path d="M 302.746094 155.960938 L 104.351562 97.234375 C 101.226562 96.308594 97.847656 97.117188 95.480469 99.355469 C 93.113281 101.59375 92.113281 104.921875 92.863281 108.09375 L 139.878906 307.691406 C 140.628906 310.863281 143.003906 313.394531 146.125 314.339844 C 149.242188 315.285156 152.628906 314.5 155.011719 312.28125 L 306.328125 171.171875 C 308.691406 168.96875 309.691406 165.671875 308.949219 162.527344 C 308.210938 159.382812 305.839844 156.878906 302.746094 155.960938 Z M 302.746094 155.960938 " clip-rule="nonzero"/></clipPath><clipPath id="1ba068520d"><path d="M 0 0.238281 L 217.839844 0.238281 L 217.839844 219 L 0 219 Z M 0 0.238281 " clip-rule="nonzero"/></clipPath><clipPath id="eedc41be40"><path d="M 50.007812 220.726562 L -1.347656 2.722656 L 191.472656 -42.699219 L 242.828125 175.304688 Z M 50.007812 220.726562 " clip-rule="nonzero"/></clipPath><clipPath id="bc13a8b147"><path d="M 210.746094 59.960938 L 12.351562 1.234375 C 9.226562 0.308594 5.847656 1.117188 3.480469 3.355469 C 1.113281 5.59375 0.113281 8.921875 0.863281 12.09375 L 47.878906 211.691406 C 48.628906 214.863281 51.003906 217.394531 54.125 218.339844 C 57.242188 219.285156 60.628906 218.5 63.011719 216.28125 L 214.328125 75.171875 C 216.691406 72.96875 217.691406 69.671875 216.949219 66.527344 C 216.210938 63.382812 213.839844 60.878906 210.746094 59.960938 Z M 210.746094 59.960938 " clip-rule="nonzero"/></clipPath><clipPath id="383d26dd73"><rect x="0" width="218" y="0" height="219"/></clipPath><clipPath id="95ffcf7d8c"><path d="M 14.925781 0 L 359.925781 0 L 359.925781 299 L 14.925781 299 Z M 14.925781 0 " clip-rule="nonzero"/></clipPath><clipPath id="f9a41a89b4"><path d="M 147.894531 157 L 195 157 L 195 229.390625 L 147.894531 229.390625 Z M 147.894531 157 " clip-rule="nonzero"/></clipPath><clipPath id="24d98d8224"><path d="M 174 195 L 227.394531 195 L 227.394531 229.390625 L 174 229.390625 Z M 174 195 " clip-rule="nonzero"/></clipPath><clipPath id="d7eb12d4cd"><path d="M 181 138.640625 L 211 138.640625 L 211 192 L 181 192 Z M 181 138.640625 " clip-rule="nonzero"/></clipPath><clipPath id="5ae0ea5faf"><path d="M 190 210 L 211 210 L 211 229.390625 L 190 229.390625 Z M 190 210 " clip-rule="nonzero"/></clipPath><clipPath id="d10de3fe10"><path d="M 54.441406 45.304688 L 320.691406 45.304688 L 320.691406 275.554688 L 54.441406 275.554688 Z M 54.441406 45.304688 " clip-rule="nonzero"/></clipPath></defs><g clip-path="url(#891ce24af3)"><g clip-path="url(#ee4b762cbe)"><g clip-path="url(#c2d1df3566)"><g transform="matrix(1, 0, 0, 1, 92, 96)"><g clip-path="url(#383d26dd73)"><g clip-path="url(#1ba068520d)"><g clip-path="url(#eedc41be40)"><g clip-path="url(#bc13a8b147)"><path fill="#fffff9" d="M 51.492188 227.019531 L -2.828125 -3.574219 L 198.648438 -51.035156 L 252.96875 179.558594 Z M 51.492188 227.019531 " fill-opacity="1" fill-rule="nonzero"/></g></g></g></g></g></g></g></g><g clip-path="url(#95ffcf7d8c)"><path fill="#2ee6e3" d="M 360.066406 298.9375 L 14.925781 298.9375 L 187.496094 0.0429688 Z M 30.871094 289.753906 L 344.117188 289.753906 L 187.496094 18.476562 Z M 30.871094 289.753906 " fill-opacity="1" fill-rule="nonzero"/></g><g clip-path="url(#f9a41a89b4)"><path fill="#2ee6e3" d="M 159.429688 229.613281 C 159.609375 229.472656 159.742188 229.265625 159.863281 228.988281 C 165.511719 215.914062 171.179688 202.851562 176.847656 189.785156 C 177.59375 188.058594 178.347656 186.332031 179.179688 184.417969 C 179.40625 184.785156 179.539062 184.953125 179.621094 185.140625 C 180.433594 186.96875 181.253906 188.796875 182.035156 190.636719 C 182.289062 191.226562 182.644531 191.472656 183.308594 191.464844 C 186.433594 191.441406 189.554688 191.464844 192.679688 191.457031 C 193.09375 191.457031 193.503906 191.390625 194.101562 191.34375 C 189.203125 180.03125 184.367188 168.875 179.535156 157.71875 C 179.4375 157.695312 179.339844 157.671875 179.242188 157.652344 C 168.804688 181.613281 158.367188 205.574219 147.894531 229.613281 Z M 159.429688 229.613281 " fill-opacity="1" fill-rule="nonzero"/></g><g clip-path="url(#24d98d8224)"><path fill="#2ee6e3" d="M 203.792969 205.890625 C 204.746094 205.882812 205.246094 206.160156 205.636719 207.070312 C 208.746094 214.347656 211.917969 221.597656 215.054688 228.863281 C 215.207031 229.21875 215.378906 229.464844 215.644531 229.613281 L 227.09375 229.613281 C 226.960938 229.257812 226.890625 229.054688 226.808594 228.859375 C 225.273438 225.300781 223.746094 221.742188 222.207031 218.1875 C 219.074219 210.957031 215.941406 203.726562 212.816406 196.492188 C 212.570312 195.921875 212.320312 195.53125 211.546875 195.53125 C 200.925781 195.5625 190.300781 195.554688 179.675781 195.542969 C 179.066406 195.542969 178.742188 195.730469 178.496094 196.316406 C 177.476562 198.773438 176.398438 201.207031 175.347656 203.648438 C 175.046875 204.351562 174.757812 205.058594 174.402344 205.910156 C 175.058594 205.910156 175.511719 205.910156 175.96875 205.910156 C 185.242188 205.910156 194.515625 205.917969 203.792969 205.890625 Z M 203.792969 205.890625 " fill-opacity="1" fill-rule="nonzero"/></g><g clip-path="url(#d7eb12d4cd)"><path fill="#2ee6e3" d="M 210.710938 191.398438 C 209.910156 191.398438 209.390625 191.398438 208.875 191.398438 C 205.882812 191.398438 202.890625 191.371094 199.898438 191.414062 C 199.125 191.425781 198.730469 191.164062 198.425781 190.457031 C 193.90625 180.039062 189.363281 169.632812 184.828125 159.21875 C 183.882812 157.054688 182.921875 154.890625 182.011719 152.710938 C 181.878906 152.394531 181.839844 151.929688 181.96875 151.621094 C 183.71875 147.515625 185.503906 143.425781 187.289062 139.332031 C 187.375 139.140625 187.546875 138.988281 187.757812 138.710938 C 195.40625 156.265625 203 173.703125 210.710938 191.398438 Z M 210.710938 191.398438 " fill-opacity="1" fill-rule="nonzero"/></g><g clip-path="url(#5ae0ea5faf)"><path fill="#2ee6e3" d="M 198.921875 229.109375 C 199.027344 229.34375 199.148438 229.503906 199.292969 229.613281 L 210.710938 229.613281 C 210.640625 229.410156 210.601562 229.273438 210.546875 229.148438 C 207.875 222.976562 205.214844 216.800781 202.503906 210.648438 C 202.371094 210.347656 201.816406 210.0625 201.457031 210.054688 C 198.5625 210.007812 195.667969 210.03125 192.773438 210.03125 C 192.128906 210.03125 191.480469 210.03125 190.703125 210.03125 C 190.792969 210.371094 190.808594 210.503906 190.859375 210.617188 C 193.546875 216.777344 196.253906 222.933594 198.921875 229.109375 Z M 198.921875 229.109375 " fill-opacity="1" fill-rule="nonzero"/></g><g clip-path="url(#d10de3fe10)"><path fill="#ffffff" d="M 320.691406 275.523438 L 54.441406 275.523438 L 187.566406 45.339844 Z M 66.742188 268.453125 L 308.390625 268.453125 L 187.566406 59.535156 Z M 66.742188 268.453125 " fill-opacity="1" fill-rule="nonzero"/></g><g fill="#ffffff" fill-opacity="1"><g transform="translate(139.549917, 363.721968)"><g><path d="M 19.25 0.03125 L 15.265625 -9.265625 L 6.25 -9.265625 L 2.140625 0.03125 L 1.28125 0.03125 L 11.78125 -23.546875 L 12 -23.546875 L 22.078125 0.03125 Z M 6.546875 -9.859375 L 15.015625 -9.859375 L 10.859375 -19.578125 Z M 6.546875 -9.859375 "/></g></g></g><g fill="#ffffff" fill-opacity="1"><g transform="translate(162.952728, 363.721968)"><g><path d="M 8.75 -23.109375 C 9.21875 -23.109375 9.863281 -23.039062 10.6875 -22.90625 C 11.507812 -22.769531 12.335938 -22.503906 13.171875 -22.109375 C 14.003906 -21.722656 14.707031 -21.140625 15.28125 -20.359375 C 15.863281 -19.585938 16.15625 -18.578125 16.15625 -17.328125 C 16.15625 -16.003906 15.882812 -14.921875 15.34375 -14.078125 C 14.800781 -13.234375 14.113281 -12.582031 13.28125 -12.125 C 12.445312 -11.664062 11.59375 -11.332031 10.71875 -11.125 C 9.851562 -10.914062 9.082031 -10.789062 8.40625 -10.75 C 7.726562 -10.71875 7.28125 -10.703125 7.0625 -10.703125 L 4.421875 -10.703125 L 4.421875 0.03125 L 1.765625 0.03125 L 1.765625 -23.109375 C 1.765625 -23.109375 2.039062 -23.109375 2.59375 -23.109375 C 3.144531 -23.109375 3.8125 -23.109375 4.59375 -23.109375 C 5.382812 -23.109375 6.164062 -23.109375 6.9375 -23.109375 C 7.707031 -23.109375 8.3125 -23.109375 8.75 -23.109375 Z M 6.40625 -11.328125 C 8.5625 -11.328125 10.265625 -11.742188 11.515625 -12.578125 C 12.765625 -13.410156 13.390625 -14.847656 13.390625 -16.890625 C 13.390625 -18.921875 12.851562 -20.359375 11.78125 -21.203125 C 10.71875 -22.054688 9.242188 -22.484375 7.359375 -22.484375 L 4.421875 -22.484375 L 4.421875 -11.328125 Z M 6.40625 -11.328125 "/></g></g></g><g fill="#ffffff" fill-opacity="1"><g transform="translate(180.652022, 363.721968)"><g><path d="M 4.421875 -0.59375 L 13.609375 -0.59375 L 13.609375 0.03125 L 1.765625 0.03125 L 1.765625 -23.109375 L 4.421875 -23.109375 Z M 4.421875 -0.59375 "/></g></g></g><g fill="#ffffff" fill-opacity="1"><g transform="translate(195.665148, 363.721968)"><g><path d="M 19.25 0.03125 L 15.265625 -9.265625 L 6.25 -9.265625 L 2.140625 0.03125 L 1.28125 0.03125 L 11.78125 -23.546875 L 12 -23.546875 L 22.078125 0.03125 Z M 6.546875 -9.859375 L 15.015625 -9.859375 L 10.859375 -19.578125 Z M 6.546875 -9.859375 "/></g></g></g><g fill="#ffffff" fill-opacity="1"><g transform="translate(219.067959, 363.721968)"><g><path d="M 0.921875 -1.734375 C 1.554688 -1.210938 2.359375 -0.726562 3.328125 -0.28125 C 4.296875 0.15625 5.566406 0.375 7.140625 0.375 C 8.140625 0.375 9.066406 0.175781 9.921875 -0.21875 C 10.785156 -0.613281 11.484375 -1.207031 12.015625 -2 C 12.546875 -2.800781 12.8125 -3.800781 12.8125 -5 C 12.8125 -6.03125 12.597656 -6.875 12.171875 -7.53125 C 11.753906 -8.195312 11.195312 -8.75 10.5 -9.1875 C 9.800781 -9.632812 9.035156 -10.015625 8.203125 -10.328125 C 7.367188 -10.648438 6.53125 -10.988281 5.6875 -11.34375 C 4.84375 -11.707031 4.066406 -12.132812 3.359375 -12.625 C 2.660156 -13.113281 2.101562 -13.742188 1.6875 -14.515625 C 1.269531 -15.285156 1.0625 -16.257812 1.0625 -17.4375 C 1.0625 -18.59375 1.28125 -19.570312 1.71875 -20.375 C 2.164062 -21.1875 2.742188 -21.84375 3.453125 -22.34375 C 4.171875 -22.851562 4.929688 -23.222656 5.734375 -23.453125 C 6.546875 -23.691406 7.320312 -23.8125 8.0625 -23.8125 C 9.039062 -23.8125 9.914062 -23.691406 10.6875 -23.453125 C 11.457031 -23.222656 12.066406 -22.988281 12.515625 -22.75 C 12.972656 -22.519531 13.203125 -22.40625 13.203125 -22.40625 L 13.25 -21.671875 C 13.25 -21.671875 13.03125 -21.789062 12.59375 -22.03125 C 12.164062 -22.28125 11.566406 -22.535156 10.796875 -22.796875 C 10.023438 -23.054688 9.113281 -23.1875 8.0625 -23.1875 C 6.488281 -23.1875 5.265625 -22.71875 4.390625 -21.78125 C 3.523438 -20.851562 3.09375 -19.722656 3.09375 -18.390625 C 3.09375 -17.296875 3.378906 -16.40625 3.953125 -15.71875 C 4.535156 -15.03125 5.269531 -14.457031 6.15625 -14 C 7.050781 -13.550781 8.003906 -13.125 9.015625 -12.71875 C 10.023438 -12.3125 10.972656 -11.84375 11.859375 -11.3125 C 12.753906 -10.789062 13.484375 -10.097656 14.046875 -9.234375 C 14.617188 -8.378906 14.90625 -7.273438 14.90625 -5.921875 C 14.90625 -4.546875 14.535156 -3.34375 13.796875 -2.3125 C 13.054688 -1.28125 12.09375 -0.484375 10.90625 0.078125 C 9.71875 0.640625 8.460938 0.921875 7.140625 0.921875 C 5.816406 0.921875 4.691406 0.769531 3.765625 0.46875 C 2.847656 0.175781 2.144531 -0.113281 1.65625 -0.40625 C 1.164062 -0.695312 0.921875 -0.84375 0.921875 -0.84375 Z M 0.921875 -1.734375 "/></g></g></g></svg>